<svg width="19" height="19" viewBox="0 0 19 19" fill="none" xmlns="http://www.w3.org/2000/svg">
<path d="M6.5 10.5L9.5 7.5L12.5 10.5" stroke="#4A4A4A" stroke-linecap="round" stroke-linejoin="round"/>
<path d="M0.5 9.5C0.5 10.6819 0.732792 11.8522 1.18508 12.9442C1.63738 14.0361 2.30031 15.0282 3.13604 15.864C3.97177 16.6997 4.96392 17.3626 6.05585 17.8149C7.14778 18.2672 8.3181 18.5 9.5 18.5C10.6819 18.5 11.8522 18.2672 12.9442 17.8149C14.0361 17.3626 15.0282 16.6997 15.864 15.864C16.6997 15.0282 17.3626 14.0361 17.8149 12.9442C18.2672 11.8522 18.5 10.6819 18.5 9.5C18.5 8.3181 18.2672 7.14778 17.8149 6.05585C17.3626 4.96392 16.6997 3.97177 15.864 3.13604C15.0282 2.30031 14.0361 1.63738 12.9442 1.18508C11.8522 0.732792 10.6819 0.5 9.5 0.5C8.3181 0.5 7.14778 0.732792 6.05585 1.18508C4.96392 1.63738 3.97177 2.30031 3.13604 3.13604C2.30031 3.97177 1.63738 4.96392 1.18508 6.05585C0.732792 7.14778 0.5 8.3181 0.5 9.5Z" stroke="#4A4A4A" stroke-linecap="round" stroke-linejoin="round"/>
</svg>
