<svg width="20" height="19" viewBox="0 0 20 19" fill="none" xmlns="http://www.w3.org/2000/svg">
<path fill-rule="evenodd" clip-rule="evenodd" d="M17.7734 0.205348C18.0481 -0.0684504 18.4928 -0.0684481 18.7675 0.205348C19.0423 0.479383 19.0423 0.9235 18.7675 1.19754L10.4921 9.44949L18.8456 17.7796C19.1202 18.0535 19.1202 18.4977 18.8456 18.7718C18.5709 19.0458 18.1253 19.0457 17.8505 18.7718L9.497 10.4417L1.2011 18.7161C0.926305 18.99 0.480739 18.9901 0.205986 18.7161C-0.068734 18.4421 -0.0685902 17.998 0.205986 17.7239L8.50286 9.44949L0.257744 1.22781C-0.0170481 0.953774 -0.0170481 0.508679 0.257744 0.234645C0.532573 -0.038938 0.97822 -0.0392394 1.25286 0.234645L9.49798 8.4573L17.7734 0.205348Z" fill="#6A6A6A"/>
</svg>
