<svg width="27" height="17" viewBox="0 0 27 17" fill="none" xmlns="http://www.w3.org/2000/svg">
<path d="M25.511 14.9176C25.8991 14.9181 26.2141 15.2332 26.2147 15.6213C26.2152 16.0093 25.9012 16.3234 25.5131 16.3228L0.704288 16.289C0.316314 16.2885 0.00134007 15.9733 0.0006335 15.5854C9.79681e-05 15.1973 0.314193 14.8833 0.702216 14.8838L25.511 14.9176ZM25.511 7.47641C25.8991 7.47695 26.2141 7.79199 26.2147 8.18007C26.215 8.56792 25.901 8.88212 25.5131 8.88165L0.703597 8.84712C0.315717 8.84635 0.000478354 8.5314 -5.70338e-05 8.14347C-0.000576489 7.75559 0.313718 7.44166 0.701525 7.44188L25.511 7.47641ZM25.511 0.0338365C25.8989 0.0343765 26.2138 0.34971 26.2147 0.737491C26.2152 1.12557 25.9005 1.4403 25.5124 1.43976L0.704288 1.40524C0.316208 1.4047 0.00116909 1.08966 0.0006335 0.701583C0.000300425 0.313676 0.314261 -0.000535109 0.702216 3.06715e-07L25.511 0.0338365Z" fill="#5B5C5E"/>
</svg>
