<svg width="30" height="33" viewBox="0 0 30 33" fill="none" xmlns="http://www.w3.org/2000/svg">
<path d="M16.728 30.7998C16.728 31.9044 15.8326 32.7998 14.728 32.7998C13.6235 32.7998 12.728 31.9044 12.728 30.7998H14.728H16.728ZM13.3138 0.58559C14.0949 -0.195459 15.3612 -0.195459 16.1422 0.58559L28.8702 13.3135C29.6512 14.0946 29.6512 15.3609 28.8702 16.1419C28.0891 16.923 26.8228 16.923 26.0417 16.1419L14.728 4.82823L3.41432 16.1419C2.63327 16.923 1.36694 16.923 0.585892 16.1419C-0.195157 15.3609 -0.195157 14.0946 0.585892 13.3135L13.3138 0.58559ZM14.728 30.7998H12.728L12.728 1.9998H14.728H16.728L16.728 30.7998H14.728Z" fill="#E7DCD8"/>
</svg>
